<svg xmlns="http://www.w3.org/2000/svg" version="1.1" xmlns:xlink="http://www.w3.org/1999/xlink" xmlns:svgjs="http://svgjs.dev/svgjs" width="100%" height="100%" viewBox="0 0 1000 600"><rect width="1000" height="600" x="0" y="0" fill="#d6711c"/><g><circle r="166.66666666666666" cx="364.04906717936194" cy="386.27121798949315" fill="#dbb98f" transform="matrix(0.63328881465932,0,0,0.63328881465932,0,55.378771788053584)"/><path d="M335.6874707507628 461.2712265824054L308.82306319912755 461.2712265824054L285.0377517811708 311.2712222720129L302.9473568155943 311.2712222720129L323.17334609737225 453.8418478378417L320.5179787894294 453.75710207269464L352.5518780150386 311.2712222720129L375.54622895828896 311.2712222720129L407.4671338303687 453.75710207269464L404.84001511080817 453.8418478378417L425.06600439258614 311.2712222720129L443.0603551921568 311.2712222720129L419.0773036555234 461.2712265824054L392.32589045741764 461.2712265824054L363.0321043048984 325.90399105408136L365.0660026684291 325.90399105408136L335.6874707507628 461.2712265824054Z " fill="#96351f" transform="matrix(0.63328881465932,0,0,0.63328881465932,0,55.378771788053584)"/><path d="M759.3864367004802 395.19844239516925L627.165055847542 395.19844239516925L627.165055847542 374.4630366249408L739.1817360139504 374.4630366249408L735.0877253682746 381.2863877010671Q735.0877253682746 380.4524225695406 735.0877253682746 379.73217995594945Q735.0877253682746 378.9740298363799 735.0877253682746 378.29169472876725L735.0877253682746 378.29169472876725Q735.0877253682746 365.74431024989036 729.8564895432444 355.2818385998299Q724.5873462122356 344.8572744557479 714.2385970801106 338.56462846332016Q703.851940442007 332.30988997687103 688.5752155326796 332.30988997687103L688.5752155326796 332.30988997687103Q673.1468605994384 332.30988997687103 661.3955337461094 338.8299810051696Q649.6821143987592 345.3879795394466 643.1241158644822 357.3288439226678Q636.5661173302051 369.26970830588897 636.5661173302051 385.7973809125063L636.5661173302051 385.7973809125063Q636.5661173302051 402.59040606097295 642.9345783345897 414.72080797408654Q649.265131832996 426.8512098872001 661.0164586863247 433.4092084214771Q672.729878033675 439.9672069557542 688.840568074529 439.9672069557542L688.840568074529 439.9672069557542Q700.2886348800299 439.9672069557542 708.7799162192094 437.57903407910993Q717.2332900524106 435.19086120246567 722.7677859252686 431.1726655687468Q728.2643742921482 427.154469935028 731.1453447465127 422.37812418173945Q734.0263152008771 417.6017784284509 734.5570202845759 412.8254326751625L734.5570202845759 412.8254326751625L757.7564139434056 412.8254326751625Q757.074078835793 421.54415905021284 752.2977330825045 430.1491629073278Q747.521387329216 438.7541667644428 738.8026609541656 445.7670553704616Q730.0460270731368 452.7799439764804 717.3470125703459 457.0255846460702Q704.6859055735337 461.27122531565993 688.1582329669163 461.27122531565993L688.1582329669163 461.27122531565993Q666.3235095233118 461.27122531565993 649.6821143987592 451.718533809083Q633.0407192742065 442.16584230250595 623.5259352736081 425.22118713012543Q614.0490587789881 408.31443946372343 614.0490587789881 386.32808599620495L614.0490587789881 386.32808599620495Q614.0490587789881 364.07637998683725 623.6017502855649 347.2454473323922Q633.1544417921419 330.3766071719685 649.9474669406085 320.82391566539155Q666.7404920890752 311.2712241588146 688.3098629908303 311.2712241588146L688.3098629908303 311.2712241588146Q710.2583089523702 311.2712241588146 726.3689989932242 320.82391566539155Q742.4796890340781 330.3766071719685 751.1984154091285 346.98009479054275Q759.9550492901575 363.5456749031385 759.9550492901575 384.69806323913036L759.9550492901575 384.69806323913036Q759.9550492901575 386.89669858588223 759.8034192662435 390.42209664188084Q759.6517892423296 393.985402203858 759.3864367004802 395.19844239516925L759.3864367004802 395.19844239516925ZM864.8830258385901 461.11959529174595L864.8830258385901 461.11959529174595Q844.1476200683614 461.11959529174595 827.2029648959809 452.05970136288926Q810.2962172295788 442.96189992805404 800.4023581691956 426.05515226165204Q790.5084991088123 409.1104970892714 790.5084991088123 385.7973809125063L790.5084991088123 385.7973809125063Q790.5084991088123 362.44635722976267 800.4023581691956 345.72914709325295Q810.2962172295788 329.0119369567432 827.2029648959809 320.1415805577789Q844.1476200683614 311.2712241588146 864.8830258385901 311.2712241588146L864.8830258385901 311.2712241588146Q880.7283633375946 311.2712241588146 893.1241177925576 316.1233849240601Q905.5577797534991 320.97554568930553 914.162783610614 329.0119369567432Q922.7298799617504 337.08623573015944 927.3166881851466 346.6768347427149Q931.9034964085427 356.3053412612489 931.9034964085427 365.8580327678258L931.9034964085427 365.8580327678258Q931.9034964085427 366.0096627917397 931.9034964085427 366.2750153335891Q931.9034964085427 366.54036787543845 931.9034964085427 366.8057204172878L931.9034964085427 366.8057204172878L908.8178252676483 366.8057204172878Q908.8178252676483 366.12338530967514 908.7041027497129 365.2515126721701Q908.5524727257989 364.3796400346651 908.400842701885 363.3940448792246L908.400842701885 363.3940448792246Q907.3394325344876 354.258335938411 901.4637691078232 347.35916985032753Q895.5881056811588 340.4979112682227 886.1870441984958 336.51762314048227Q876.7480752098543 332.57524251872036 864.731395814676 332.57524251872036L864.731395814676 332.57524251872036Q851.2363236863373 332.57524251872036 839.7124418688793 338.37509093342777Q828.1885600514214 344.1749393481353 821.1377639394241 355.9641737074425Q814.1248753334054 367.79131557272825 814.1248753334054 385.7973809125063L814.1248753334054 385.7973809125063Q814.1248753334054 403.65181622837036 821.0619489274673 415.6684956235485Q828.0369300275074 427.6851750187266 839.5608118449654 433.7503759752835Q851.0846936624233 439.8155769318402 864.731395814676 439.8155769318402L864.731395814676 439.8155769318402Q879.4774156403048 439.8155769318402 889.0301071468818 435.19086120246567Q898.5827986534588 430.5661454730911 903.4349594187042 422.83301425348117Q908.2871201839496 415.13779053984973 908.8178252676483 406.2674341408854L908.8178252676483 406.2674341408854L931.9034964085427 406.2674341408854Q931.9034964085427 416.0854781893118 927.5062257150389 425.8277072257811Q923.1468625275138 435.607843768229 914.6934886943127 443.56842002370973Q906.2401148611117 451.566903785169 893.7306378882133 456.34324953845754Q881.2590684212934 461.11959529174595 864.8830258385901 461.11959529174595ZM1018.6737775932834 461.11959529174595L1018.6737775932834 461.11959529174595Q1002.1840124926446 461.11959529174595 989.8261655436601 455.92626697269424Q977.4683185946756 450.7329386536424 970.6449675185492 440.9907096171731Q963.8216164424227 431.24848058070376 963.8216164424227 417.6017784284509L963.8216164424227 417.6017784284509Q963.8216164424227 403.38646368652104 971.1756726022479 393.9095871919009Q978.5676362680515 384.4327106972809 991.948985878455 379.08775235431534Q1005.2924279828799 373.78070151732817 1023.0331407808085 371.9990487363396L1023.0331407808085 371.9990487363396Q1049.7958400016155 369.26970830588897 1061.1301842891812 366.6161828873954Q1072.4645285767465 363.9626574689018 1072.4645285767465 357.93536401832347L1072.4645285767465 357.93536401832347Q1072.4645285767465 357.821641500388 1072.4645285767465 357.7458264884311Q1072.4645285767465 357.67001147647414 1072.4645285767465 357.5562889585387L1072.4645285767465 357.5562889585387Q1072.4645285767465 344.9709969736834 1062.2295019625572 338.7920734991911Q1051.9944753483674 332.57524251872036 1032.5858322873855 332.57524251872036L1032.5858322873855 332.57524251872036Q1012.4190391068341 332.57524251872036 1001.1984173372041 339.58813112473916Q990.0157030735525 346.6389272367365 990.0157030735525 362.3326347118272L990.0157030735525 362.3326347118272L967.081661956572 362.3326347118272Q967.081661956572 346.0703146470592 975.4213132718376 334.6980628535153Q983.7609645871032 323.28790355399275 998.5448919187104 317.29851760939295Q1013.3667267562962 311.2712241588146 1032.7374623112996 311.2712241588146L1032.7374623112996 311.2712241588146Q1050.4781751092282 311.2712241588146 1064.7313973571368 316.65409000775884Q1078.9846196050453 322.07486336268147 1087.4000859322678 332.6510575306773Q1095.7776447535116 343.22725169867323 1095.7776447535116 358.7693291498501L1095.7776447535116 358.7693291498501Q1095.7776447535116 361.6502996042146 1095.7776447535116 364.4175475406435Q1095.7776447535116 367.2227029830511 1095.7776447535116 370.1036734374156L1095.7776447535116 370.1036734374156L1095.7776447535116 431.0968505567899Q1095.7776447535116 435.8731963100783 1096.1946273192748 440.3841895215174Q1096.6116098850384 444.8951827329566 1097.5592975345003 448.30685827101973L1097.5592975345003 448.30685827101973Q1098.7723377258117 452.40086891669563 1100.2886379649508 454.90276431127523Q1101.80493820409 457.4425672118335 1102.7526258535518 458.39025486129543L1102.7526258535518 458.39025486129543L1079.4016021708085 458.39025486129543Q1078.7192670631957 457.7079197536828 1077.3545968479702 455.1681168531247Q1075.9899266327452 452.66622145854495 1074.7768864414338 449.2545459204818L1074.7768864414338 449.2545459204818Q1073.829198791972 446.52520549003117 1073.2605862022947 442.35537983239834Q1072.729881118596 438.1855541747656 1072.729881118596 433.67456096332654L1072.729881118596 433.67456096332654L1076.5585392224225 436.2901788758416Q1072.3128985528324 443.64423503566667 1064.2006922734377 449.2545459204818Q1056.0884859940434 454.8269492993183 1044.6025116825635 457.9732722955321Q1033.1544448770628 461.11959529174595 1018.6737775932834 461.11959529174595ZM1022.3508056731959 440.2325594976035L1022.3508056731959 440.2325594976035Q1036.414490391212 440.2325594976035 1047.7488346787777 435.94901132203523Q1059.083178966343 431.62755564048854 1065.7549000185554 423.17418180728754Q1072.4645285767465 414.72080797408654 1072.4645285767465 402.17342349520965L1072.4645285767465 402.17342349520965L1072.4645285767465 373.36371895156486L1077.6199493898198 382.1203528325937Q1068.9012230147696 385.53202837065686 1055.8610409581725 387.6169411994733Q1042.8208589015753 389.7397615342682 1028.6434516656236 391.1044317494935L1028.6434516656236 391.1044317494935Q1008.0217684133304 393.0377145543959 997.5972042692484 398.3447653913832Q987.1726401251665 403.65181622837036 987.1726401251665 416.23710821322567L987.1726401251665 416.23710821322567Q987.1726401251665 428.10215758448993 995.7397364763029 434.16735854104667Q1004.3447403334178 440.2325594976035 1022.3508056731959 440.2325594976035ZM1157.4531569804985 458.39025486129543L1134.2537633216689 458.39025486129543L1134.2537633216689 313.4698595055665L1157.4531569804985 313.4698595055665L1157.4531569804985 357.93536401832347L1149.8337482788243 355.20602358787295Q1150.6298059043725 347.16963232043514 1153.9277589244998 339.32277858288984Q1157.1878044386494 331.4759248453444 1162.9876528533568 325.14537134693836Q1168.7875012680643 318.77691034255366 1177.544135149093 315.02406725068414Q1186.2628615241433 311.2712241588146 1198.0141883774722 311.2712241588146L1198.0141883774722 311.2712241588146Q1206.7329147525224 311.2712241588146 1212.2674106253808 312.7117093859969Q1217.8019064982386 314.1521946131791 1219.166576713464 314.9482522387272L1219.166576713464 314.9482522387272L1213.1392832628858 337.7685708377722Q1211.7746130476603 336.7829756823317 1207.6047873900275 335.304582949171Q1203.4728692383733 333.78828271003175 1195.8155530307204 333.78828271003175L1195.8155530307204 333.78828271003175Q1184.4812087431546 333.78828271003175 1177.0513375713726 337.88229335570753Q1169.6214663995906 341.9763040013834 1165.3000107180437 348.7238400655529Q1161.016462542476 355.5092836357008 1159.2348097614872 363.3940448792246Q1157.4531569804985 371.316713628727 1157.4531569804985 379.08775235431534L1157.4531569804985 379.08775235431534L1157.4531569804985 458.39025486129543ZM1381.145349759509 395.19844239516925L1248.886061400592 395.19844239516925L1248.886061400592 374.4630366249408L1360.9406490729789 374.4630366249408L1356.8466384273033 381.2863877010671Q1356.8466384273033 380.4524225695406 1356.8466384273033 379.73217995594945Q1356.8466384273033 378.9740298363799 1356.8466384273033 378.29169472876725L1356.8466384273033 378.29169472876725Q1356.8466384273033 365.74431024989036 1351.5774950962946 355.2818385998299Q1346.3462592712644 344.8572744557479 1335.959602633161 338.56462846332016Q1325.6108535010358 332.30988997687103 1310.29622108573 332.30988997687103L1310.29622108573 332.30988997687103Q1294.9057736584668 332.30988997687103 1283.154446805138 338.8299810051696Q1271.4031199518095 345.3879795394466 1264.8830289235107 357.3288439226678Q1258.3250303892337 369.26970830588897 1258.3250303892337 385.7973809125063L1258.3250303892337 385.7973809125063Q1258.3250303892337 402.59040606097295 1264.6555838876398 414.72080797408654Q1271.024044892025 426.8512098872001 1282.7374642393752 433.4092084214771Q1294.4887910927037 439.9672069557542 1310.5994811335577 439.9672069557542L1310.5994811335577 439.9672069557542Q1322.0475479390589 439.9672069557542 1330.5009217722595 437.57903407910993Q1338.9542956054606 435.19086120246567 1344.488791478319 431.1726655687468Q1350.0232873511768 427.154469935028 1352.9042578055414 422.37812418173945Q1355.7473207539274 417.6017784284509 1356.3159333436047 412.8254326751625L1356.3159333436047 412.8254326751625L1379.5153270024343 412.8254326751625Q1378.8329918948216 421.54415905021284 1374.0566461415333 430.1491629073278Q1369.2803003882445 438.7541667644428 1360.5236665072157 445.7670553704616Q1351.8049401321655 452.7799439764804 1339.1059256293747 457.0255846460702Q1326.406911126584 461.27122531565993 1309.917146025945 461.27122531565993L1309.917146025945 461.27122531565993Q1288.0824225823408 461.27122531565993 1271.4031199518095 451.718533809083Q1254.7617248272568 442.16584230250595 1245.2848483326366 425.22118713012543Q1235.8079718380168 408.31443946372343 1235.8079718380168 386.32808599620495L1235.8079718380168 386.32808599620495Q1235.8079718380168 364.07637998683725 1245.3606633445938 347.2454473323922Q1254.9133548511704 330.3766071719685 1271.7063799996372 320.82391566539155Q1288.4614976421253 311.2712241588146 1310.0308685438804 311.2712241588146L1310.0308685438804 311.2712241588146Q1332.0172220113986 311.2712241588146 1348.1279120522531 320.82391566539155Q1364.2006945871285 330.3766071719685 1372.9573284681574 346.98009479054275Q1381.6760548432076 363.5456749031385 1381.6760548432076 384.69806323913036L1381.6760548432076 384.69806323913036Q1381.6760548432076 386.89669858588223 1381.562332325272 390.42209664188084Q1381.4107023013585 393.985402203858 1381.145349759509 395.19844239516925L1381.145349759509 395.19844239516925Z " fill="#dbb98f" transform="matrix(0.63328881465932,0,0,0.63328881465932,0,55.378771788053584)"/></g></svg>